<mxfile host="app.diagrams.net" modified="2023-12-19T08:17:59.884Z" agent="Mozilla/5.0 (Macintosh; Intel Mac OS X 10_15_7) AppleWebKit/537.36 (KHTML, like Gecko) Chrome/120.0.0.0 Safari/537.36" etag="ql9DbDNwgpPOcr_35kk6" version="22.1.11" type="github" pages="2">
  <diagram name="Solution with PostgreSQL" id="eNp4XBkWu4a3NWbSoFOo">
    <mxGraphModel dx="2049" dy="2117" grid="1" gridSize="10" guides="1" tooltips="1" connect="1" arrows="1" fold="1" page="1" pageScale="1" pageWidth="850" pageHeight="1100" math="0" shadow="0">
      <root>
        <mxCell id="0" />
        <mxCell id="1" parent="0" />
        <mxCell id="p19nnu3lJGl8k2eWsUUS-1" value="on-premises" style="sketch=0;points=[[0,0,0],[0.25,0,0],[0.5,0,0],[0.75,0,0],[1,0,0],[1,0.25,0],[1,0.5,0],[1,0.75,0],[1,1,0],[0.75,1,0],[0.5,1,0],[0.25,1,0],[0,1,0],[0,0.75,0],[0,0.5,0],[0,0.25,0]];rounded=1;absoluteArcSize=1;arcSize=2;html=1;strokeColor=none;gradientColor=none;shadow=0;dashed=0;fontSize=12;fontColor=#9E9E9E;align=left;verticalAlign=top;spacing=10;spacingTop=-4;whiteSpace=wrap;fillColor=#EFEBE9;" vertex="1" parent="1">
          <mxGeometry x="920" y="120" width="720" height="600" as="geometry" />
        </mxCell>
        <mxCell id="p19nnu3lJGl8k2eWsUUS-2" value="Infrastructure&#xa;System" style="sketch=0;points=[[0,0,0],[0.25,0,0],[0.5,0,0],[0.75,0,0],[1,0,0],[1,0.25,0],[1,0.5,0],[1,0.75,0],[1,1,0],[0.75,1,0],[0.5,1,0],[0.25,1,0],[0,1,0],[0,0.75,0],[0,0.5,0],[0,0.25,0]];rounded=1;absoluteArcSize=1;arcSize=2;html=1;strokeColor=none;gradientColor=none;shadow=0;dashed=0;fontSize=12;fontColor=#9E9E9E;align=left;verticalAlign=top;spacing=10;spacingTop=-4;whiteSpace=wrap;fillColor=#F3E5F5;" vertex="1" parent="1">
          <mxGeometry x="150" y="120" width="640" height="600" as="geometry" />
        </mxCell>
        <mxCell id="p19nnu3lJGl8k2eWsUUS-3" value="Next.js" style="sketch=0;points=[[0,0,0],[0.25,0,0],[0.5,0,0],[0.75,0,0],[1,0,0],[0,1,0],[0.25,1,0],[0.5,1,0],[0.75,1,0],[1,1,0],[0,0.25,0],[0,0.5,0],[0,0.75,0],[1,0.25,0],[1,0.5,0],[1,0.75,0]];outlineConnect=0;fontColor=#232F3E;fillColor=#ED7100;strokeColor=#ffffff;dashed=0;verticalLabelPosition=bottom;verticalAlign=top;align=center;html=1;fontSize=12;fontStyle=0;aspect=fixed;shape=mxgraph.aws4.resourceIcon;resIcon=mxgraph.aws4.compute;" vertex="1" parent="1">
          <mxGeometry x="436.5" y="240" width="78" height="78" as="geometry" />
        </mxCell>
        <mxCell id="p19nnu3lJGl8k2eWsUUS-13" style="edgeStyle=orthogonalEdgeStyle;rounded=0;orthogonalLoop=1;jettySize=auto;html=1;" edge="1" parent="1" source="p19nnu3lJGl8k2eWsUUS-4" target="p19nnu3lJGl8k2eWsUUS-3">
          <mxGeometry relative="1" as="geometry" />
        </mxCell>
        <mxCell id="p19nnu3lJGl8k2eWsUUS-4" value="" style="outlineConnect=0;dashed=0;verticalLabelPosition=bottom;verticalAlign=top;align=center;html=1;shape=mxgraph.aws3.internet_gateway;fillColor=#F58534;gradientColor=none;" vertex="1" parent="1">
          <mxGeometry x="441" y="80" width="69" height="72" as="geometry" />
        </mxCell>
        <mxCell id="p19nnu3lJGl8k2eWsUUS-17" style="edgeStyle=orthogonalEdgeStyle;rounded=0;orthogonalLoop=1;jettySize=auto;html=1;" edge="1" parent="1" source="p19nnu3lJGl8k2eWsUUS-6" target="p19nnu3lJGl8k2eWsUUS-9">
          <mxGeometry relative="1" as="geometry" />
        </mxCell>
        <mxCell id="p19nnu3lJGl8k2eWsUUS-6" value="" style="outlineConnect=0;dashed=0;verticalLabelPosition=bottom;verticalAlign=top;align=center;html=1;shape=mxgraph.aws3.vpn_gateway;fillColor=#F58534;gradientColor=none;" vertex="1" parent="1">
          <mxGeometry x="820" y="387" width="69" height="72" as="geometry" />
        </mxCell>
        <mxCell id="p19nnu3lJGl8k2eWsUUS-15" style="edgeStyle=orthogonalEdgeStyle;rounded=0;orthogonalLoop=1;jettySize=auto;html=1;" edge="1" parent="1" source="p19nnu3lJGl8k2eWsUUS-7" target="p19nnu3lJGl8k2eWsUUS-6">
          <mxGeometry relative="1" as="geometry" />
        </mxCell>
        <mxCell id="p19nnu3lJGl8k2eWsUUS-7" value="Strapi" style="sketch=0;points=[[0,0,0],[0.25,0,0],[0.5,0,0],[0.75,0,0],[1,0,0],[0,1,0],[0.25,1,0],[0.5,1,0],[0.75,1,0],[1,1,0],[0,0.25,0],[0,0.5,0],[0,0.75,0],[1,0.25,0],[1,0.5,0],[1,0.75,0]];outlineConnect=0;fontColor=#232F3E;fillColor=#ED7100;strokeColor=#ffffff;dashed=0;verticalLabelPosition=bottom;verticalAlign=top;align=center;html=1;fontSize=12;fontStyle=0;aspect=fixed;shape=mxgraph.aws4.resourceIcon;resIcon=mxgraph.aws4.compute;" vertex="1" parent="1">
          <mxGeometry x="436.5" y="384" width="78" height="78" as="geometry" />
        </mxCell>
        <mxCell id="p19nnu3lJGl8k2eWsUUS-8" value="Legacy System" style="sketch=0;points=[[0,0,0],[0.25,0,0],[0.5,0,0],[0.75,0,0],[1,0,0],[0,1,0],[0.25,1,0],[0.5,1,0],[0.75,1,0],[1,1,0],[0,0.25,0],[0,0.5,0],[0,0.75,0],[1,0.25,0],[1,0.5,0],[1,0.75,0]];outlineConnect=0;fontColor=#232F3E;fillColor=#ED7100;strokeColor=#ffffff;dashed=0;verticalLabelPosition=bottom;verticalAlign=top;align=center;html=1;fontSize=12;fontStyle=0;aspect=fixed;shape=mxgraph.aws4.resourceIcon;resIcon=mxgraph.aws4.compute;" vertex="1" parent="1">
          <mxGeometry x="1280" y="210" width="78" height="78" as="geometry" />
        </mxCell>
        <mxCell id="p19nnu3lJGl8k2eWsUUS-9" value="Legacy System" style="sketch=0;points=[[0,0,0],[0.25,0,0],[0.5,0,0],[0.75,0,0],[1,0,0],[0,1,0],[0.25,1,0],[0.5,1,0],[0.75,1,0],[1,1,0],[0,0.25,0],[0,0.5,0],[0,0.75,0],[1,0.25,0],[1,0.5,0],[1,0.75,0]];outlineConnect=0;fontColor=#232F3E;fillColor=#ED7100;strokeColor=#ffffff;dashed=0;verticalLabelPosition=bottom;verticalAlign=top;align=center;html=1;fontSize=12;fontStyle=0;aspect=fixed;shape=mxgraph.aws4.resourceIcon;resIcon=mxgraph.aws4.compute;" vertex="1" parent="1">
          <mxGeometry x="1280" y="384" width="78" height="78" as="geometry" />
        </mxCell>
        <mxCell id="p19nnu3lJGl8k2eWsUUS-11" value="PostgreSQL (Master)&amp;nbsp;&lt;br&gt;with pg_bm25 extension" style="verticalLabelPosition=bottom;html=1;verticalAlign=top;align=center;strokeColor=none;fillColor=#00BEF2;shape=mxgraph.azure.sql_database;" vertex="1" parent="1">
          <mxGeometry x="280" y="570" width="61.5" height="82" as="geometry" />
        </mxCell>
        <mxCell id="p19nnu3lJGl8k2eWsUUS-12" value="PostgreSQL (Replica)&lt;br&gt;with pg_bm25 extension" style="verticalLabelPosition=bottom;html=1;verticalAlign=top;align=center;strokeColor=none;fillColor=#00BEF2;shape=mxgraph.azure.sql_database;" vertex="1" parent="1">
          <mxGeometry x="600" y="570" width="61.5" height="82" as="geometry" />
        </mxCell>
        <mxCell id="p19nnu3lJGl8k2eWsUUS-14" style="edgeStyle=orthogonalEdgeStyle;rounded=0;orthogonalLoop=1;jettySize=auto;html=1;entryX=0.5;entryY=0;entryDx=0;entryDy=0;entryPerimeter=0;" edge="1" parent="1" source="p19nnu3lJGl8k2eWsUUS-3" target="p19nnu3lJGl8k2eWsUUS-7">
          <mxGeometry relative="1" as="geometry" />
        </mxCell>
        <mxCell id="p19nnu3lJGl8k2eWsUUS-16" style="edgeStyle=orthogonalEdgeStyle;rounded=0;orthogonalLoop=1;jettySize=auto;html=1;entryX=0;entryY=0.5;entryDx=0;entryDy=0;entryPerimeter=0;" edge="1" parent="1" source="p19nnu3lJGl8k2eWsUUS-6" target="p19nnu3lJGl8k2eWsUUS-8">
          <mxGeometry relative="1" as="geometry" />
        </mxCell>
        <mxCell id="p19nnu3lJGl8k2eWsUUS-18" value="Legacy System" style="sketch=0;points=[[0,0,0],[0.25,0,0],[0.5,0,0],[0.75,0,0],[1,0,0],[0,1,0],[0.25,1,0],[0.5,1,0],[0.75,1,0],[1,1,0],[0,0.25,0],[0,0.5,0],[0,0.75,0],[1,0.25,0],[1,0.5,0],[1,0.75,0]];outlineConnect=0;fontColor=#232F3E;fillColor=#ED7100;strokeColor=#ffffff;dashed=0;verticalLabelPosition=bottom;verticalAlign=top;align=center;html=1;fontSize=12;fontStyle=0;aspect=fixed;shape=mxgraph.aws4.resourceIcon;resIcon=mxgraph.aws4.compute;" vertex="1" parent="1">
          <mxGeometry x="1280" y="550" width="78" height="78" as="geometry" />
        </mxCell>
        <mxCell id="p19nnu3lJGl8k2eWsUUS-19" style="edgeStyle=orthogonalEdgeStyle;rounded=0;orthogonalLoop=1;jettySize=auto;html=1;entryX=0;entryY=0.5;entryDx=0;entryDy=0;entryPerimeter=0;" edge="1" parent="1" source="p19nnu3lJGl8k2eWsUUS-6" target="p19nnu3lJGl8k2eWsUUS-18">
          <mxGeometry relative="1" as="geometry" />
        </mxCell>
        <mxCell id="p19nnu3lJGl8k2eWsUUS-20" style="edgeStyle=orthogonalEdgeStyle;rounded=0;orthogonalLoop=1;jettySize=auto;html=1;entryX=0.5;entryY=0;entryDx=0;entryDy=0;entryPerimeter=0;exitX=0.5;exitY=1;exitDx=0;exitDy=0;exitPerimeter=0;" edge="1" parent="1" source="p19nnu3lJGl8k2eWsUUS-7" target="p19nnu3lJGl8k2eWsUUS-11">
          <mxGeometry relative="1" as="geometry" />
        </mxCell>
        <mxCell id="p19nnu3lJGl8k2eWsUUS-22" value="Update" style="edgeLabel;html=1;align=center;verticalAlign=middle;resizable=0;points=[];" vertex="1" connectable="0" parent="p19nnu3lJGl8k2eWsUUS-20">
          <mxGeometry x="0.0267" y="1" relative="1" as="geometry">
            <mxPoint as="offset" />
          </mxGeometry>
        </mxCell>
        <mxCell id="p19nnu3lJGl8k2eWsUUS-21" style="edgeStyle=orthogonalEdgeStyle;rounded=0;orthogonalLoop=1;jettySize=auto;html=1;entryX=0.5;entryY=0;entryDx=0;entryDy=0;entryPerimeter=0;exitX=0.5;exitY=1;exitDx=0;exitDy=0;exitPerimeter=0;" edge="1" parent="1" source="p19nnu3lJGl8k2eWsUUS-7" target="p19nnu3lJGl8k2eWsUUS-12">
          <mxGeometry relative="1" as="geometry" />
        </mxCell>
        <mxCell id="p19nnu3lJGl8k2eWsUUS-24" value="Read" style="edgeLabel;html=1;align=center;verticalAlign=middle;resizable=0;points=[];" vertex="1" connectable="0" parent="p19nnu3lJGl8k2eWsUUS-21">
          <mxGeometry x="-0.006" y="-1" relative="1" as="geometry">
            <mxPoint x="-1" as="offset" />
          </mxGeometry>
        </mxCell>
        <mxCell id="p19nnu3lJGl8k2eWsUUS-26" value="users" style="sketch=0;outlineConnect=0;gradientColor=none;fontColor=#545B64;strokeColor=none;fillColor=#879196;dashed=0;verticalLabelPosition=bottom;verticalAlign=top;align=center;html=1;fontSize=12;fontStyle=0;aspect=fixed;shape=mxgraph.aws4.illustration_users;pointerEvents=1" vertex="1" parent="1">
          <mxGeometry x="425.5" y="-100" width="100" height="100" as="geometry" />
        </mxCell>
        <mxCell id="p19nnu3lJGl8k2eWsUUS-27" style="edgeStyle=orthogonalEdgeStyle;rounded=0;orthogonalLoop=1;jettySize=auto;html=1;entryX=0.5;entryY=0;entryDx=0;entryDy=0;entryPerimeter=0;" edge="1" parent="1" source="p19nnu3lJGl8k2eWsUUS-26" target="p19nnu3lJGl8k2eWsUUS-4">
          <mxGeometry relative="1" as="geometry" />
        </mxCell>
        <mxCell id="p19nnu3lJGl8k2eWsUUS-28" value="True" style="rounded=1;arcSize=3;dashed=1;strokeColor=#F59D56;fillColor=none;gradientColor=none;dashPattern=8 4;strokeWidth=2;" vertex="1" parent="1">
          <mxGeometry x="100" y="60" width="1600" height="720" as="geometry" />
        </mxCell>
        <mxCell id="p19nnu3lJGl8k2eWsUUS-29" value="True Infrastructure" style="text;html=1;strokeColor=none;fillColor=none;align=center;verticalAlign=middle;whiteSpace=wrap;rounded=0;" vertex="1" parent="1">
          <mxGeometry x="100" y="60" width="140" height="30" as="geometry" />
        </mxCell>
      </root>
    </mxGraphModel>
  </diagram>
  <diagram name="Solution with Elasticsearch" id="qVpOlXqFMGxjL2HHTOTF">
    <mxGraphModel dx="2390" dy="2287" grid="1" gridSize="10" guides="1" tooltips="1" connect="1" arrows="1" fold="1" page="1" pageScale="1" pageWidth="850" pageHeight="1100" math="0" shadow="0">
      <root>
        <mxCell id="nHSShh3I5wFwPZuTcABJ-0" />
        <mxCell id="nHSShh3I5wFwPZuTcABJ-1" parent="nHSShh3I5wFwPZuTcABJ-0" />
        <mxCell id="nHSShh3I5wFwPZuTcABJ-25" value="" style="rounded=1;arcSize=3;dashed=1;strokeColor=#F59D56;fillColor=none;gradientColor=none;dashPattern=8 4;strokeWidth=2;" vertex="1" parent="nHSShh3I5wFwPZuTcABJ-1">
          <mxGeometry x="100" y="60" width="1600" height="720" as="geometry" />
        </mxCell>
        <mxCell id="nHSShh3I5wFwPZuTcABJ-2" value="on-premises" style="sketch=0;points=[[0,0,0],[0.25,0,0],[0.5,0,0],[0.75,0,0],[1,0,0],[1,0.25,0],[1,0.5,0],[1,0.75,0],[1,1,0],[0.75,1,0],[0.5,1,0],[0.25,1,0],[0,1,0],[0,0.75,0],[0,0.5,0],[0,0.25,0]];rounded=1;absoluteArcSize=1;arcSize=2;html=1;strokeColor=none;gradientColor=none;shadow=0;dashed=0;fontSize=12;fontColor=#9E9E9E;align=left;verticalAlign=top;spacing=10;spacingTop=-4;whiteSpace=wrap;fillColor=#EFEBE9;" vertex="1" parent="nHSShh3I5wFwPZuTcABJ-1">
          <mxGeometry x="920" y="120" width="720" height="600" as="geometry" />
        </mxCell>
        <mxCell id="nHSShh3I5wFwPZuTcABJ-3" value="Infrastructure&#xa;System" style="sketch=0;points=[[0,0,0],[0.25,0,0],[0.5,0,0],[0.75,0,0],[1,0,0],[1,0.25,0],[1,0.5,0],[1,0.75,0],[1,1,0],[0.75,1,0],[0.5,1,0],[0.25,1,0],[0,1,0],[0,0.75,0],[0,0.5,0],[0,0.25,0]];rounded=1;absoluteArcSize=1;arcSize=2;html=1;strokeColor=none;gradientColor=none;shadow=0;dashed=0;fontSize=12;fontColor=#9E9E9E;align=left;verticalAlign=top;spacing=10;spacingTop=-4;whiteSpace=wrap;fillColor=#F3E5F5;" vertex="1" parent="nHSShh3I5wFwPZuTcABJ-1">
          <mxGeometry x="150" y="120" width="640" height="600" as="geometry" />
        </mxCell>
        <mxCell id="nHSShh3I5wFwPZuTcABJ-4" value="Next.js" style="sketch=0;points=[[0,0,0],[0.25,0,0],[0.5,0,0],[0.75,0,0],[1,0,0],[0,1,0],[0.25,1,0],[0.5,1,0],[0.75,1,0],[1,1,0],[0,0.25,0],[0,0.5,0],[0,0.75,0],[1,0.25,0],[1,0.5,0],[1,0.75,0]];outlineConnect=0;fontColor=#232F3E;fillColor=#ED7100;strokeColor=#ffffff;dashed=0;verticalLabelPosition=bottom;verticalAlign=top;align=center;html=1;fontSize=12;fontStyle=0;aspect=fixed;shape=mxgraph.aws4.resourceIcon;resIcon=mxgraph.aws4.compute;" vertex="1" parent="nHSShh3I5wFwPZuTcABJ-1">
          <mxGeometry x="436.5" y="240" width="78" height="78" as="geometry" />
        </mxCell>
        <mxCell id="nHSShh3I5wFwPZuTcABJ-5" style="edgeStyle=orthogonalEdgeStyle;rounded=0;orthogonalLoop=1;jettySize=auto;html=1;" edge="1" parent="nHSShh3I5wFwPZuTcABJ-1" source="nHSShh3I5wFwPZuTcABJ-6" target="nHSShh3I5wFwPZuTcABJ-4">
          <mxGeometry relative="1" as="geometry" />
        </mxCell>
        <mxCell id="nHSShh3I5wFwPZuTcABJ-6" value="" style="outlineConnect=0;dashed=0;verticalLabelPosition=bottom;verticalAlign=top;align=center;html=1;shape=mxgraph.aws3.internet_gateway;fillColor=#F58534;gradientColor=none;" vertex="1" parent="nHSShh3I5wFwPZuTcABJ-1">
          <mxGeometry x="441" y="80" width="69" height="72" as="geometry" />
        </mxCell>
        <mxCell id="nHSShh3I5wFwPZuTcABJ-7" style="edgeStyle=orthogonalEdgeStyle;rounded=0;orthogonalLoop=1;jettySize=auto;html=1;" edge="1" parent="nHSShh3I5wFwPZuTcABJ-1" source="nHSShh3I5wFwPZuTcABJ-8" target="nHSShh3I5wFwPZuTcABJ-12">
          <mxGeometry relative="1" as="geometry" />
        </mxCell>
        <mxCell id="nHSShh3I5wFwPZuTcABJ-8" value="" style="outlineConnect=0;dashed=0;verticalLabelPosition=bottom;verticalAlign=top;align=center;html=1;shape=mxgraph.aws3.vpn_gateway;fillColor=#F58534;gradientColor=none;" vertex="1" parent="nHSShh3I5wFwPZuTcABJ-1">
          <mxGeometry x="820" y="387" width="69" height="72" as="geometry" />
        </mxCell>
        <mxCell id="nHSShh3I5wFwPZuTcABJ-9" style="edgeStyle=orthogonalEdgeStyle;rounded=0;orthogonalLoop=1;jettySize=auto;html=1;" edge="1" parent="nHSShh3I5wFwPZuTcABJ-1" source="nHSShh3I5wFwPZuTcABJ-10" target="nHSShh3I5wFwPZuTcABJ-8">
          <mxGeometry relative="1" as="geometry" />
        </mxCell>
        <mxCell id="W3mR3t0bh_NGR1Sfotlx-4" style="edgeStyle=orthogonalEdgeStyle;rounded=0;orthogonalLoop=1;jettySize=auto;html=1;exitX=0.5;exitY=1;exitDx=0;exitDy=0;exitPerimeter=0;" edge="1" parent="nHSShh3I5wFwPZuTcABJ-1" source="nHSShh3I5wFwPZuTcABJ-10" target="W3mR3t0bh_NGR1Sfotlx-1">
          <mxGeometry relative="1" as="geometry">
            <Array as="points">
              <mxPoint x="476" y="530" />
              <mxPoint x="329" y="530" />
            </Array>
          </mxGeometry>
        </mxCell>
        <mxCell id="W3mR3t0bh_NGR1Sfotlx-6" value="Search" style="edgeLabel;html=1;align=center;verticalAlign=middle;resizable=0;points=[];" vertex="1" connectable="0" parent="W3mR3t0bh_NGR1Sfotlx-4">
          <mxGeometry x="0.0699" y="1" relative="1" as="geometry">
            <mxPoint as="offset" />
          </mxGeometry>
        </mxCell>
        <mxCell id="nHSShh3I5wFwPZuTcABJ-10" value="Strapi" style="sketch=0;points=[[0,0,0],[0.25,0,0],[0.5,0,0],[0.75,0,0],[1,0,0],[0,1,0],[0.25,1,0],[0.5,1,0],[0.75,1,0],[1,1,0],[0,0.25,0],[0,0.5,0],[0,0.75,0],[1,0.25,0],[1,0.5,0],[1,0.75,0]];outlineConnect=0;fontColor=#232F3E;fillColor=#ED7100;strokeColor=#ffffff;dashed=0;verticalLabelPosition=bottom;verticalAlign=top;align=center;html=1;fontSize=12;fontStyle=0;aspect=fixed;shape=mxgraph.aws4.resourceIcon;resIcon=mxgraph.aws4.compute;" vertex="1" parent="nHSShh3I5wFwPZuTcABJ-1">
          <mxGeometry x="436.5" y="384" width="78" height="78" as="geometry" />
        </mxCell>
        <mxCell id="nHSShh3I5wFwPZuTcABJ-11" value="Legacy System" style="sketch=0;points=[[0,0,0],[0.25,0,0],[0.5,0,0],[0.75,0,0],[1,0,0],[0,1,0],[0.25,1,0],[0.5,1,0],[0.75,1,0],[1,1,0],[0,0.25,0],[0,0.5,0],[0,0.75,0],[1,0.25,0],[1,0.5,0],[1,0.75,0]];outlineConnect=0;fontColor=#232F3E;fillColor=#ED7100;strokeColor=#ffffff;dashed=0;verticalLabelPosition=bottom;verticalAlign=top;align=center;html=1;fontSize=12;fontStyle=0;aspect=fixed;shape=mxgraph.aws4.resourceIcon;resIcon=mxgraph.aws4.compute;" vertex="1" parent="nHSShh3I5wFwPZuTcABJ-1">
          <mxGeometry x="1280" y="210" width="78" height="78" as="geometry" />
        </mxCell>
        <mxCell id="nHSShh3I5wFwPZuTcABJ-12" value="Legacy System" style="sketch=0;points=[[0,0,0],[0.25,0,0],[0.5,0,0],[0.75,0,0],[1,0,0],[0,1,0],[0.25,1,0],[0.5,1,0],[0.75,1,0],[1,1,0],[0,0.25,0],[0,0.5,0],[0,0.75,0],[1,0.25,0],[1,0.5,0],[1,0.75,0]];outlineConnect=0;fontColor=#232F3E;fillColor=#ED7100;strokeColor=#ffffff;dashed=0;verticalLabelPosition=bottom;verticalAlign=top;align=center;html=1;fontSize=12;fontStyle=0;aspect=fixed;shape=mxgraph.aws4.resourceIcon;resIcon=mxgraph.aws4.compute;" vertex="1" parent="nHSShh3I5wFwPZuTcABJ-1">
          <mxGeometry x="1280" y="384" width="78" height="78" as="geometry" />
        </mxCell>
        <mxCell id="nHSShh3I5wFwPZuTcABJ-14" value="PostgreSQL (Replica)" style="verticalLabelPosition=bottom;html=1;verticalAlign=top;align=center;strokeColor=none;fillColor=#00BEF2;shape=mxgraph.azure.sql_database;" vertex="1" parent="nHSShh3I5wFwPZuTcABJ-1">
          <mxGeometry x="630" y="590" width="61.5" height="82" as="geometry" />
        </mxCell>
        <mxCell id="nHSShh3I5wFwPZuTcABJ-13" value="PostgreSQL (Master)" style="verticalLabelPosition=bottom;html=1;verticalAlign=top;align=center;strokeColor=none;fillColor=#00BEF2;shape=mxgraph.azure.sql_database;" vertex="1" parent="nHSShh3I5wFwPZuTcABJ-1">
          <mxGeometry x="600" y="570" width="61.5" height="82" as="geometry" />
        </mxCell>
        <mxCell id="nHSShh3I5wFwPZuTcABJ-15" style="edgeStyle=orthogonalEdgeStyle;rounded=0;orthogonalLoop=1;jettySize=auto;html=1;entryX=0.5;entryY=0;entryDx=0;entryDy=0;entryPerimeter=0;" edge="1" parent="nHSShh3I5wFwPZuTcABJ-1" source="nHSShh3I5wFwPZuTcABJ-4" target="nHSShh3I5wFwPZuTcABJ-10">
          <mxGeometry relative="1" as="geometry" />
        </mxCell>
        <mxCell id="nHSShh3I5wFwPZuTcABJ-16" style="edgeStyle=orthogonalEdgeStyle;rounded=0;orthogonalLoop=1;jettySize=auto;html=1;entryX=0;entryY=0.5;entryDx=0;entryDy=0;entryPerimeter=0;" edge="1" parent="nHSShh3I5wFwPZuTcABJ-1" source="nHSShh3I5wFwPZuTcABJ-8" target="nHSShh3I5wFwPZuTcABJ-11">
          <mxGeometry relative="1" as="geometry" />
        </mxCell>
        <mxCell id="nHSShh3I5wFwPZuTcABJ-17" value="Legacy System" style="sketch=0;points=[[0,0,0],[0.25,0,0],[0.5,0,0],[0.75,0,0],[1,0,0],[0,1,0],[0.25,1,0],[0.5,1,0],[0.75,1,0],[1,1,0],[0,0.25,0],[0,0.5,0],[0,0.75,0],[1,0.25,0],[1,0.5,0],[1,0.75,0]];outlineConnect=0;fontColor=#232F3E;fillColor=#ED7100;strokeColor=#ffffff;dashed=0;verticalLabelPosition=bottom;verticalAlign=top;align=center;html=1;fontSize=12;fontStyle=0;aspect=fixed;shape=mxgraph.aws4.resourceIcon;resIcon=mxgraph.aws4.compute;" vertex="1" parent="nHSShh3I5wFwPZuTcABJ-1">
          <mxGeometry x="1280" y="550" width="78" height="78" as="geometry" />
        </mxCell>
        <mxCell id="nHSShh3I5wFwPZuTcABJ-18" style="edgeStyle=orthogonalEdgeStyle;rounded=0;orthogonalLoop=1;jettySize=auto;html=1;entryX=0;entryY=0.5;entryDx=0;entryDy=0;entryPerimeter=0;" edge="1" parent="nHSShh3I5wFwPZuTcABJ-1" source="nHSShh3I5wFwPZuTcABJ-8" target="nHSShh3I5wFwPZuTcABJ-17">
          <mxGeometry relative="1" as="geometry" />
        </mxCell>
        <mxCell id="nHSShh3I5wFwPZuTcABJ-23" value="users" style="sketch=0;outlineConnect=0;gradientColor=none;fontColor=#545B64;strokeColor=none;fillColor=#879196;dashed=0;verticalLabelPosition=bottom;verticalAlign=top;align=center;html=1;fontSize=12;fontStyle=0;aspect=fixed;shape=mxgraph.aws4.illustration_users;pointerEvents=1" vertex="1" parent="nHSShh3I5wFwPZuTcABJ-1">
          <mxGeometry x="425.5" y="-100" width="100" height="100" as="geometry" />
        </mxCell>
        <mxCell id="nHSShh3I5wFwPZuTcABJ-24" style="edgeStyle=orthogonalEdgeStyle;rounded=0;orthogonalLoop=1;jettySize=auto;html=1;entryX=0.5;entryY=0;entryDx=0;entryDy=0;entryPerimeter=0;" edge="1" parent="nHSShh3I5wFwPZuTcABJ-1" source="nHSShh3I5wFwPZuTcABJ-23" target="nHSShh3I5wFwPZuTcABJ-6">
          <mxGeometry relative="1" as="geometry" />
        </mxCell>
        <mxCell id="nHSShh3I5wFwPZuTcABJ-26" value="True Infrastructure" style="text;html=1;strokeColor=none;fillColor=none;align=center;verticalAlign=middle;whiteSpace=wrap;rounded=0;" vertex="1" parent="nHSShh3I5wFwPZuTcABJ-1">
          <mxGeometry x="100" y="60" width="140" height="30" as="geometry" />
        </mxCell>
        <mxCell id="W3mR3t0bh_NGR1Sfotlx-1" value="Elasticsearch" style="sketch=0;points=[[0,0,0],[0.25,0,0],[0.5,0,0],[0.75,0,0],[1,0,0],[0,1,0],[0.25,1,0],[0.5,1,0],[0.75,1,0],[1,1,0],[0,0.25,0],[0,0.5,0],[0,0.75,0],[1,0.25,0],[1,0.5,0],[1,0.75,0]];outlineConnect=0;fontColor=#232F3E;fillColor=#ED7100;strokeColor=#ffffff;dashed=0;verticalLabelPosition=bottom;verticalAlign=top;align=center;html=1;fontSize=12;fontStyle=0;aspect=fixed;shape=mxgraph.aws4.resourceIcon;resIcon=mxgraph.aws4.compute;" vertex="1" parent="nHSShh3I5wFwPZuTcABJ-1">
          <mxGeometry x="290" y="580" width="78" height="78" as="geometry" />
        </mxCell>
        <mxCell id="W3mR3t0bh_NGR1Sfotlx-3" value="Read/Update" style="edgeStyle=orthogonalEdgeStyle;rounded=0;orthogonalLoop=1;jettySize=auto;html=1;exitX=0.5;exitY=1;exitDx=0;exitDy=0;exitPerimeter=0;entryX=0.5;entryY=0;entryDx=0;entryDy=0;entryPerimeter=0;" edge="1" parent="nHSShh3I5wFwPZuTcABJ-1" source="nHSShh3I5wFwPZuTcABJ-10" target="nHSShh3I5wFwPZuTcABJ-13">
          <mxGeometry x="0.1584" relative="1" as="geometry">
            <Array as="points">
              <mxPoint x="476" y="530" />
              <mxPoint x="631" y="530" />
            </Array>
            <mxPoint as="offset" />
          </mxGeometry>
        </mxCell>
      </root>
    </mxGraphModel>
  </diagram>
</mxfile>
